<?xml version="1.0" encoding="utf-8"?>
<!-- Generator: Adobe Illustrator 16.0.0, SVG Export Plug-In . SVG Version: 6.00 Build 0)  -->
<!DOCTYPE svg PUBLIC "-//W3C//DTD SVG 1.1//EN" "http://www.w3.org/Graphics/SVG/1.1/DTD/svg11.dtd">
<svg version="1.1" id="Layer_1" xmlns="http://www.w3.org/2000/svg" xmlns:xlink="http://www.w3.org/1999/xlink" x="0px" y="0px"
	 width="629.889px" height="1800.043px" viewBox="419.5 -213.281 629.889 1800.043"
	 enable-background="new 419.5 -213.281 629.889 1800.043" xml:space="preserve">
<g>
	<path fill="#E9573F" d="M884.891,650.909c-36.556-20.323-137.336-460.956-137.336-460.956S578.949,815.41,549.885,825.036
		c-47.34,15.672-78.915-96.517-78.915-96.517l-50.278,516.23l0,0c-0.677,7.658-1.073,15.415-1.168,23.245
		c-2.106,173.938,137.176,316.636,311.115,318.743c173.938,2.105,316.635-137.176,318.742-311.114
		c0.229-18.876-4.177-55.431-4.177-55.431l-79.945-613.924C965.259,606.269,918.553,669.637,884.891,650.909z"/>
</g>
<circle fill="#FFCE54" cx="734.124" cy="1271.754" r="224.986"/>
<g>
	<line fill="none" x1="527.378" y1="327.304" x2="532.482" y2="-94.102"/>
	<g>
		<g>
			<path fill="#EB7462" d="M538.861,226.705c-0.404-0.054-0.827,1.34-0.984-0.835c-0.302-6.842,1.121-12.321,0.819-19.168
				c-0.212-0.164-0.431-0.332-0.646-0.5c0.37-5.29,0.754-10.801,1.147-16.427c0.032-10.371,0.002-20.687-0.094-30.963
				c-0.242,0.265-0.461,0.389-0.537-0.634c-0.122-4.274,0.178-10.189,0.322-16.322c-0.029-0.904-0.055-1.812-0.081-2.703
				c-0.131-0.699-0.358-0.881-0.498-0.995c0.055-2.771,0.147-5.235,0.245-7.518c-1.011-30.113-2.04-60.698-3.152-93.84
				c-0.516-7.011-1.033-14.027-1.227-20.781c-0.129-10.002,0.452-22.758,0.645-32.507c-2.324,1.467-3.164-22.316-5.554-17.6
				c0.127-6.496,0.323-16.255-0.324-16.765c-1.938-1.535-4.133-6.563-5.102-23.839c-0.194-6.759,0.754-17.123,0.387-19.509
				c-0.582-3.758-1.486,8.74-2.067,4.982c-1.316,50.197-1.052,98.553-1.685,149.104c0.814,17.221-0.141,133.285-0.956,163.089
				c-0.002,0.906-0.002,1.807-0.004,2.709c-0.322,16.261-0.388,36.014,0.322,49.789c0.468,6.317,1.049,12.746,1.608,19.144
				c0.415-2.967,0.829-5.714,1.233-8.096c-0.128,6.507-0.259,13.009,0.129,15.511c0.817,13.864,2.067,6.03,3.702,0.723
				c0.734-3.826,1.724,1.37,2.497-4.622c-0.085,4.325-0.129,6.492-0.215,10.836c0.648,0.505-0.171-13.354,0.862-10.332
				c-0.301,4.165,0.042,8.843-0.044,13.172c0.905-1.491,0.518-15.003,1.378-14.324c0.174,2.339-1.335,12.157-0.257,13.007
				c0.214,0.169,0.301-4.166,0.344-6.333c0.171,13.346,1.12,20.707,2.454,8.545c-0.086,4.229-0.619,10.199-0.523,14.671
				c0.007-0.004,0.01-0.023,0.017-0.033c0.063-2.231,0.335-6.074,0.375-8.136c-0.05,2.532-0.102,5.075-0.151,7.612
				c0.159-0.398,0.314-0.849,0.471-1.324c0.157-1.894,0.287-3.796,0.328-5.774c-0.034,1.68-0.067,3.365-0.101,5.056
				c0.371-1.259,0.729-2.704,1.07-4.294c0.774-5.996,1.872-11.736,1.938-14.985C537.787,279.264,538.472,252.917,538.861,226.705z"
				/>
		</g>
	</g>
</g>
<g>
	<line fill="none" x1="944.038" y1="391.253" x2="947.152" y2="134.099"/>
	<g>
		<g>
			<path fill="#EB7462" d="M955.045,329.913c-0.405-0.034-0.819,0.814-0.99-0.513c-0.331-4.179,1.062-7.514,0.73-11.696
				l-0.649-0.307c0.343-3.224,0.703-6.589,1.07-10.019c-0.018-6.329-0.096-12.626-0.242-18.896c-0.239,0.16-0.457,0.234-0.539-0.391
				c-0.142-2.608,0.131-6.216,0.246-9.958c-0.032-0.553-0.062-1.106-0.096-1.651c-0.135-0.427-0.362-0.539-0.501-0.61
				c0.042-1.69,0.121-3.191,0.209-4.586c-1.063-18.382-2.348-37.051-3.598-57.283c-0.548-4.282-1.098-8.566-1.322-12.689
				c-0.178-6.104,0.342-13.886,0.491-19.836c-2.318,0.885-3.271-13.632-5.639-10.765c0.099-3.965,0.248-9.92-0.4-10.234
				c-1.945-0.947-4.164-4.026-5.216-14.573c-0.224-4.126,0.674-10.445,0.295-11.904c-0.598-2.297-1.444,5.327-2.041,3.031
				c-1.079,30.629-0.59,60.141-0.981,90.99c0.896,10.511,0.487,81.342-0.186,99.526l0.008,1.652
				c-0.245,9.922-0.216,21.977,0.561,30.387c0.495,3.859,1.107,7.784,1.697,11.691c0.401-1.809,0.803-3.484,1.195-4.935
				c-0.099,3.97-0.197,7.938,0.203,9.468c0.884,8.464,2.095,3.69,3.704,0.458c0.716-2.331,1.731,0.845,2.476-2.808
				c-0.065,2.639-0.098,3.961-0.162,6.611c0.648,0.311-0.235-8.149,0.81-6.299c-0.279,2.54,0.088,5.396,0.021,8.037
				c0.896-0.902,0.446-9.153,1.31-8.734c0.186,1.43-1.275,7.413-0.197,7.938c0.218,0.104,0.282-2.542,0.315-3.863
				c0.234,8.146,1.216,12.643,2.493,5.225c-0.064,2.581-0.569,6.222-0.454,8.951c0.008-0.002,0.012-0.015,0.019-0.02
				c0.053-1.36,0.307-3.706,0.335-4.962c-0.037,1.544-0.074,3.096-0.113,4.643c0.156-0.241,0.312-0.516,0.465-0.804
				c0.148-1.155,0.27-2.317,0.299-3.522c-0.023,1.023-0.05,2.053-0.075,3.084c0.364-0.765,0.717-1.647,1.05-2.616
				c0.747-3.656,1.815-7.154,1.865-9.136C954.219,361.984,954.778,345.908,955.045,329.913z"/>
		</g>
	</g>
</g>
<g>
	<line fill="none" x1="623.138" y1="353.429" x2="626.618" y2="66.052"/>
	<g>
		<g>
			<path fill="#EB7462" d="M634.233,284.865c-0.405-0.037-0.821,0.912-0.988-0.573c-0.329-4.667,1.074-8.398,0.745-13.069
				c-0.214-0.113-0.431-0.229-0.648-0.342c0.349-3.605,0.713-7.364,1.083-11.199c-0.007-7.073-0.077-14.11-0.213-21.117
				c-0.242,0.181-0.461,0.264-0.54-0.435c-0.138-2.916,0.138-6.948,0.258-11.13c-0.032-0.618-0.062-1.236-0.091-1.845
				c-0.136-0.477-0.362-0.603-0.501-0.682c0.045-1.889,0.128-3.568,0.216-5.125c-1.038-20.542-2.296-41.402-3.515-64.01
				c-0.543-4.784-1.087-9.569-1.308-14.177c-0.167-6.823,0.364-15.521,0.521-22.168c-2.32,0.992-3.251-15.23-5.622-12.023
				c0.103-4.43,0.262-11.084-0.389-11.434c-1.942-1.054-4.158-4.493-5.194-16.277c-0.218-4.611,0.689-11.676,0.314-13.305
				c-0.596-2.565-1.451,5.955-2.047,3.389c-1.123,34.23-0.674,67.209-1.11,101.682c0.88,11.747,0.372,90.899-0.328,111.222
				l0.007,1.847c-0.261,11.09-0.25,24.56,0.514,33.957c0.491,4.312,1.098,8.698,1.683,13.062c0.403-2.021,0.806-3.893,1.201-5.516
				c-0.103,4.437-0.207,8.87,0.189,10.58c0.872,9.458,2.088,4.123,3.704,0.506c0.719-2.604,1.729,0.942,2.479-3.142
				c-0.069,2.95-0.104,4.427-0.174,7.39c0.651,0.345-0.221-9.109,0.823-7.043c-0.284,2.84,0.078,6.031,0.007,8.984
				c0.898-1.012,0.459-10.23,1.324-9.765c0.184,1.598-1.287,8.288-0.208,8.872c0.217,0.116,0.285-2.84,0.321-4.319
				c0.223,9.102,1.199,14.127,2.486,5.838c-0.068,2.883-0.58,6.953-0.466,10.003c0.008-0.003,0.011-0.016,0.018-0.023
				c0.055-1.521,0.312-4.141,0.344-5.546c-0.04,1.728-0.081,3.461-0.122,5.191c0.158-0.271,0.312-0.578,0.465-0.901
				c0.151-1.291,0.274-2.588,0.307-3.937c-0.028,1.146-0.056,2.296-0.081,3.447c0.363-0.855,0.716-1.84,1.051-2.924
				c0.752-4.086,1.827-7.996,1.88-10.212C633.361,320.706,633.943,302.741,634.233,284.865z"/>
		</g>
	</g>
</g>
<g>
	<line fill="none" x1="805.832" y1="203.535" x2="810.87" y2="-212.477"/>
	<g>
		<g>
			<path fill="#EB7462" d="M817.299,104.226c-0.403-0.054-0.824,1.321-0.983-0.826c-0.302-6.755,1.118-12.162,0.816-18.923
				c-0.213-0.161-0.43-0.328-0.646-0.494c0.369-5.221,0.753-10.662,1.146-16.217c0.029-10.236-0.002-20.421-0.1-30.565
				c-0.241,0.262-0.463,0.384-0.538-0.627c-0.123-4.219,0.178-10.058,0.319-16.111c-0.028-0.894-0.054-1.789-0.082-2.67
				c-0.132-0.689-0.356-0.871-0.496-0.982c0.054-2.736,0.146-5.168,0.241-7.422c-1.015-29.727-2.047-59.92-3.167-92.638
				c-0.518-6.92-1.035-13.849-1.229-20.515c-0.13-9.873,0.449-22.467,0.64-32.092c-2.324,1.449-3.167-22.03-5.556-17.375
				c0.126-6.413,0.318-16.047-0.325-16.552c-1.94-1.513-4.135-6.479-5.107-23.532c-0.194-6.673,0.753-16.904,0.386-19.26
				c-0.583-3.711-1.483,8.627-2.067,4.918c-1.307,49.554-1.037,97.29-1.659,147.195c0.815,17-0.122,131.581-0.933,161.001
				c0.001,0.894-0.001,1.784-0.003,2.672c-0.32,16.054-0.381,35.552,0.331,49.151c0.468,6.237,1.05,12.583,1.612,18.899
				c0.414-2.929,0.826-5.641,1.23-7.992c-0.128,6.424-0.255,12.842,0.13,15.315c0.821,13.687,2.067,5.955,3.703,0.711
				c0.733-3.773,1.726,1.354,2.496-4.562c-0.085,4.27-0.125,6.408-0.215,10.698c0.649,0.499-0.173-13.183,0.862-10.2
				c-0.301,4.113,0.045,8.729-0.042,13.004c0.902-1.471,0.513-14.811,1.374-14.141c0.176,2.31-1.331,12.001-0.255,12.841
				c0.217,0.167,0.301-4.113,0.344-6.251c0.176,13.173,1.125,20.441,2.455,8.435c-0.085,4.174-0.616,10.068-0.52,14.482
				c0.007-0.005,0.009-0.023,0.017-0.033c0.063-2.203,0.336-5.998,0.374-8.03c-0.049,2.5-0.1,5.009-0.149,7.514
				c0.158-0.395,0.313-0.838,0.471-1.308c0.155-1.867,0.286-3.747,0.327-5.699c-0.034,1.66-0.064,3.322-0.1,4.989
				c0.369-1.241,0.728-2.667,1.068-4.238c0.773-5.919,1.871-11.586,1.934-14.792C816.234,156.108,816.915,130.102,817.299,104.226z"
				/>
		</g>
	</g>
</g>
<g>
	<line fill="none" x1="538.84" y1="590.783" x2="541.089" y2="405.212"/>
	<g>
		<g>
			<path fill="#EB7462" d="M549.64,546.553c-0.405-0.026-0.816,0.583-0.99-0.374c-0.348-3.017,1.037-5.418,0.689-8.438l-0.649-0.223
				c0.333-2.325,0.682-4.755,1.036-7.229c-0.038-4.566-0.138-9.111-0.304-13.638c-0.24,0.115-0.458,0.168-0.541-0.284
				c-0.15-1.882,0.11-4.486,0.209-7.187c-0.032-0.399-0.066-0.797-0.099-1.191c-0.137-0.308-0.364-0.39-0.504-0.441
				c0.036-1.221,0.112-2.305,0.195-3.31c-1.127-13.271-2.475-26.748-3.79-41.353c-0.564-3.092-1.127-6.186-1.367-9.161
				c-0.197-4.407,0.298-10.021,0.425-14.314c-2.315,0.632-3.316-9.849-5.673-7.789c0.085-2.86,0.214-7.157-0.437-7.387
				c-1.947-0.689-4.177-2.918-5.262-10.534c-0.238-2.979,0.637-7.537,0.256-8.59c-0.608-1.659-1.427,3.839-2.035,2.18
				c-0.975,22.102-0.384,43.4-0.673,65.662c0.931,7.59,0.762,58.705,0.149,71.825l0.015,1.194
				c-0.212,7.159-0.143,15.859,0.661,21.93c0.509,2.787,1.134,5.622,1.737,8.443c0.396-1.304,0.79-2.51,1.178-3.558
				c-0.084,2.865-0.168,5.728,0.235,6.833c0.913,6.112,2.108,2.671,3.706,0.343c0.707-1.68,1.734,0.615,2.466-2.019
				c-0.057,1.904-0.086,2.859-0.142,4.771c0.651,0.225-0.262-5.883,0.79-4.545c-0.271,1.833,0.104,3.894,0.046,5.801
				c0.895-0.65,0.415-6.604,1.28-6.299c0.189,1.032-1.252,5.346-0.169,5.728c0.218,0.075,0.272-1.834,0.302-2.788
				c0.262,5.879,1.259,9.128,2.51,3.78c-0.055,1.862-0.548,4.488-0.421,6.458c0.006-0.002,0.01-0.01,0.017-0.014
				c0.048-0.982,0.294-2.673,0.32-3.581l-0.1,3.352c0.154-0.174,0.307-0.371,0.46-0.58c0.144-0.833,0.262-1.671,0.288-2.54
				l-0.066,2.227c0.362-0.552,0.71-1.187,1.04-1.885c0.734-2.636,1.793-5.156,1.835-6.586
				C548.922,569.695,549.427,558.096,549.64,546.553z"/>
		</g>
	</g>
</g>
</svg>
