<?xml version="1.0" encoding="utf-8"?>
<!-- Generator: Adobe Illustrator 16.0.0, SVG Export Plug-In . SVG Version: 6.00 Build 0)  -->
<!DOCTYPE svg PUBLIC "-//W3C//DTD SVG 1.1//EN" "http://www.w3.org/Graphics/SVG/1.1/DTD/svg11.dtd">
<svg version="1.1" id="OBJECTS" xmlns="http://www.w3.org/2000/svg" xmlns:xlink="http://www.w3.org/1999/xlink" x="0px" y="0px"
	 width="828.57px" height="281.087px" viewBox="0 0 828.57 281.087" enable-background="new 0 0 828.57 281.087"
	 xml:space="preserve">
<g>
	<g>
		<linearGradient id="SVGID_1_" gradientUnits="userSpaceOnUse" x1="418.4893" y1="282.3481" x2="418.4893" y2="-1.2568">
			<stop  offset="0" style="stop-color:#FFF7D4"/>
			<stop  offset="0.4047" style="stop-color:#FFF5D1"/>
			<stop  offset="0.7205" style="stop-color:#FFF1C7"/>
			<stop  offset="1" style="stop-color:#FFE9B7"/>
		</linearGradient>
		<rect y="-1.257" fill="url(#SVGID_1_)" width="836.979" height="283.605"/>
		<g>
			<ellipse fill="#FFFAE6" cx="548.47" cy="6.78" rx="57.074" ry="58.019"/>
			<path fill="#9A8072" d="M235.809,163.875c0,0,147.623-39.21,193.582-36.514c37.11,2.178,133.583,80.828,141.057,79.764
				c7.477-1.063,130.604-66.779,164.409-68.065c32.606-1.24,89.196,52.065,89.196,52.065l4.502,53.223H235.809V163.875z"/>
			<g>
				<linearGradient id="SVGID_2_" gradientUnits="userSpaceOnUse" x1="25.3418" y1="361.4951" x2="813.6871" y2="109.0801">
					<stop  offset="0" style="stop-color:#E3B985"/>
					<stop  offset="0.0889" style="stop-color:#E9C18E"/>
					<stop  offset="0.3165" style="stop-color:#F6CF9E"/>
					<stop  offset="0.5693" style="stop-color:#FDD8A8"/>
					<stop  offset="0.8949" style="stop-color:#FFDBAB"/>
					<stop  offset="0.9275" style="stop-color:#FDD8A9"/>
					<stop  offset="0.9469" style="stop-color:#F7D0A2"/>
					<stop  offset="0.9629" style="stop-color:#EDC296"/>
					<stop  offset="0.977" style="stop-color:#DEAE86"/>
					<stop  offset="0.9898" style="stop-color:#CB9470"/>
					<stop  offset="1" style="stop-color:#B8795A"/>
				</linearGradient>
				<path fill="url(#SVGID_2_)" d="M0,188.164c0,0,140.286-35.509,156.919-38.326c16.634-2.818,31.049-15.219,125.308,19.163
					c94.258,34.381,152.477,29.309,156.172,30.06l102.761-46.593c0,0,19.96-10.896,49.161,2.631
					c29.201,13.527,149.206,56.174,248.687,33.065l-1.445,94.716L0,282.348V188.164z"/>
				<linearGradient id="SVGID_3_" gradientUnits="userSpaceOnUse" x1="442.8145" y1="202.6143" x2="579.1716" y2="165.4367">
					<stop  offset="0" style="stop-color:#C09871"/>
					<stop  offset="0.4193" style="stop-color:#BD9671"/>
					<stop  offset="0.6698" style="stop-color:#B59171"/>
					<stop  offset="0.8753" style="stop-color:#A78872"/>
					<stop  offset="1" style="stop-color:#9A8072"/>
				</linearGradient>
				<path fill="url(#SVGID_3_)" d="M543.005,199.061c15.155-3.006,30.31-11.271,35.486-23.671
					c5.176-12.401-11.798-25.863-19.206-27.022l0,0c-11.376,0.428-18.128,4.101-18.128,4.101l-102.759,46.593
					C438.398,199.061,527.851,202.067,543.005,199.061z"/>
				<linearGradient id="SVGID_4_" gradientUnits="userSpaceOnUse" x1="418.7812" y1="283.3774" x2="418.7812" y2="143.2343">
					<stop  offset="0" style="stop-color:#FFDBAB"/>
					<stop  offset="0.1812" style="stop-color:#F6D09F"/>
					<stop  offset="0.6053" style="stop-color:#E3B985"/>
					<stop  offset="0.6944" style="stop-color:#DFB481"/>
					<stop  offset="0.8072" style="stop-color:#D5A477"/>
					<stop  offset="0.9321" style="stop-color:#C48A66"/>
					<stop  offset="1" style="stop-color:#B8795A"/>
				</linearGradient>
				<path fill="url(#SVGID_4_)" d="M837.562,280.222c-25.922-12.775-161.116-34.568-236.522-34.568s-184.82,0-331.197-40.582
					c-132.367-36.697-100.904-55.863-93.67-59.195c-8.269,0.966-13.637,3.008-19.254,3.96C140.286,152.655,0,188.164,0,188.164
					v94.184h837.562V280.222z"/>
			</g>
		</g>
		<path fill="#FFF7D4" d="M793.172,82.157c-10.928-0.311-4.17-3.848-5.521-5.304c-1.351-1.457-19.829-0.625-24.56,0
			c-4.734,0.624,0,1.871-6.085,2.08c-6.083,0.207-44.617,1.04-44.617,1.04c-2.967,0.45-4.957,2.289-4.957,2.289
			c-1.67,1.457,2.56,2.279,9.213,2.785c0.147,1.102-0.9,2.06-6.354,2.215c-10.927,0.311-16.312,0.527-11.466,3.716
			c2.531,1.665-9.127,1.796-7.776,4.084c1.35,2.288,11.696-0.417,22.963,0c11.266,0.416,25.912,3.941,29.97,0.93
			c4.054-3.01-6.086-4.05,9.688-4.675c1.876-0.074,3.966-0.137,6.184-0.195c3.788,2.171,14.399,0.151,24.195-0.786
			c1.685-0.101,3.267-0.214,4.694-0.349c0.237-0.01,0.477-0.022,0.711-0.03c11.268-0.417,14.632,0.263,16.676,0
			c6.057-0.785,3.796-1.603,8.976-3.267C820.288,85.028,804.101,82.47,793.172,82.157z"/>
	</g>
</g>
</svg>
